<svg xmlns="http://www.w3.org/2000/svg" viewBox="0 0 512 512">
  <defs>
    <radialGradient id="felt" cx="50%" cy="38%" r="72%">
      <stop offset="0" stop-color="#136247"/>
      <stop offset="1" stop-color="#020504"/>
    </radialGradient>
    <linearGradient id="gold" x1="0" x2="1" y1="0" y2="1">
      <stop offset="0" stop-color="#fff0b8"/>
      <stop offset="0.5" stop-color="#d79b32"/>
      <stop offset="1" stop-color="#6d3e0d"/>
    </linearGradient>
    <linearGradient id="card" x1="0" x2="1" y1="0" y2="1">
      <stop offset="0" stop-color="#ffffff"/>
      <stop offset="1" stop-color="#d9ccb4"/>
    </linearGradient>
  </defs>
  <rect width="512" height="512" rx="112" fill="#050706"/>
  <circle cx="256" cy="256" r="204" fill="url(#felt)" stroke="url(#gold)" stroke-width="22"/>
  <circle cx="256" cy="256" r="158" fill="none" stroke="#f2c667" stroke-opacity=".34" stroke-width="10" stroke-dasharray="28 20"/>
  <g transform="translate(94 116) rotate(-10 162 142)">
    <rect x="42" y="32" width="154" height="226" rx="18" fill="url(#card)" stroke="#fff7df" stroke-width="8"/>
    <text x="70" y="86" font-family="Georgia, serif" font-size="54" font-weight="900" fill="#17110a">A</text>
    <path d="M119 142c-28-32-72 6-34 45l34 35 34-35c38-39-6-77-34-45z" fill="#c93232"/>
  </g>
  <g transform="translate(190 118) rotate(9 130 142)">
    <rect x="42" y="32" width="154" height="226" rx="18" fill="url(#card)" stroke="#fff7df" stroke-width="8"/>
    <text x="70" y="86" font-family="Georgia, serif" font-size="54" font-weight="900" fill="#17110a">K</text>
    <path d="M119 134l42 42-42 42-42-42z" fill="#16191c"/>
  </g>
  <circle cx="256" cy="372" r="54" fill="#14100a" stroke="url(#gold)" stroke-width="14"/>
  <text x="256" y="390" text-anchor="middle" font-family="Arial Black, system-ui" font-size="44" fill="#f2c667">GTO</text>
</svg>
